<svg xmlns="http://www.w3.org/2000/svg" xmlns:xlink="http://www.w3.org/1999/xlink" width="2000" zoomAndPan="magnify" viewBox="0 0 1500 1499.999933" height="2000" preserveAspectRatio="xMidYMid meet" version="1.0"><defs><clipPath id="c42070128f"><path d="M 243.839844 243.839844 L 1256.339844 243.839844 L 1256.339844 1256.339844 L 243.839844 1256.339844 Z M 243.839844 243.839844 " clip-rule="nonzero"/></clipPath></defs><g clip-path="url(#c42070128f)"><path fill="#6bc0ff" d="M 556.222656 243.839844 L 943.738281 243.839844 C 948.851562 243.839844 953.960938 243.964844 959.066406 244.214844 C 964.171875 244.464844 969.269531 244.84375 974.359375 245.34375 C 979.445312 245.84375 984.519531 246.46875 989.574219 247.21875 C 994.632812 247.96875 999.667969 248.84375 1004.683594 249.839844 C 1009.695312 250.839844 1014.683594 251.957031 1019.644531 253.199219 C 1024.601562 254.441406 1029.527344 255.804688 1034.421875 257.289062 C 1039.3125 258.773438 1044.164062 260.378906 1048.980469 262.101562 C 1053.792969 263.820312 1058.5625 265.660156 1063.285156 267.617188 C 1068.007812 269.574219 1072.679688 271.644531 1077.300781 273.832031 C 1081.921875 276.015625 1086.488281 278.316406 1090.996094 280.726562 C 1095.507812 283.136719 1099.953125 285.65625 1104.339844 288.28125 C 1108.722656 290.910156 1113.042969 293.644531 1117.292969 296.484375 C 1121.542969 299.328125 1125.722656 302.269531 1129.828125 305.316406 C 1133.933594 308.359375 1137.964844 311.503906 1141.914062 314.746094 C 1145.867188 317.992188 1149.738281 321.328125 1153.527344 324.761719 C 1157.3125 328.195312 1161.015625 331.71875 1164.632812 335.335938 C 1168.246094 338.949219 1171.769531 342.652344 1175.203125 346.441406 C 1178.636719 350.226562 1181.976562 354.097656 1185.21875 358.050781 C 1188.460938 362.003906 1191.605469 366.03125 1194.652344 370.136719 C 1197.695312 374.246094 1200.640625 378.421875 1203.480469 382.675781 C 1206.320312 386.925781 1209.054688 391.242188 1211.683594 395.628906 C 1214.3125 400.011719 1216.832031 404.460938 1219.242188 408.96875 C 1221.652344 413.476562 1223.949219 418.042969 1226.136719 422.664062 C 1228.320312 427.285156 1230.390625 431.957031 1232.347656 436.683594 C 1234.304688 441.40625 1236.144531 446.171875 1237.867188 450.988281 C 1239.589844 455.800781 1241.191406 460.652344 1242.675781 465.546875 C 1244.160156 470.4375 1245.523438 475.363281 1246.765625 480.324219 C 1248.007812 485.28125 1249.128906 490.269531 1250.125 495.285156 C 1251.121094 500.296875 1251.996094 505.332031 1252.746094 510.390625 C 1253.496094 515.449219 1254.121094 520.519531 1254.625 525.609375 C 1255.125 530.695312 1255.5 535.792969 1255.75 540.898438 C 1256.003906 546.007812 1256.128906 551.117188 1256.128906 556.226562 L 1256.128906 943.746094 C 1256.128906 948.855469 1256.003906 953.964844 1255.75 959.074219 C 1255.5 964.179688 1255.125 969.277344 1254.625 974.363281 C 1254.121094 979.453125 1253.496094 984.523438 1252.746094 989.582031 C 1251.996094 994.636719 1251.121094 999.675781 1250.125 1004.6875 C 1249.128906 1009.703125 1248.007812 1014.6875 1246.765625 1019.648438 C 1245.523438 1024.609375 1244.160156 1029.535156 1242.675781 1034.425781 C 1241.191406 1039.320312 1239.589844 1044.171875 1237.867188 1048.984375 C 1236.144531 1053.796875 1234.304688 1058.566406 1232.347656 1063.289062 C 1230.390625 1068.015625 1228.320312 1072.6875 1226.132812 1077.308594 C 1223.949219 1081.929688 1221.652344 1086.496094 1219.242188 1091.003906 C 1216.832031 1095.511719 1214.3125 1099.960938 1211.683594 1104.34375 C 1209.054688 1108.730469 1206.320312 1113.046875 1203.480469 1117.296875 C 1200.640625 1121.550781 1197.695312 1125.726562 1194.652344 1129.835938 C 1191.605469 1133.941406 1188.460938 1137.96875 1185.21875 1141.921875 C 1181.976562 1145.875 1178.636719 1149.742188 1175.203125 1153.53125 C 1171.769531 1157.320312 1168.246094 1161.023438 1164.628906 1164.636719 C 1161.015625 1168.25 1157.3125 1171.777344 1153.527344 1175.210938 C 1149.738281 1178.644531 1145.867188 1181.980469 1141.914062 1185.222656 C 1137.964844 1188.46875 1133.933594 1191.613281 1129.828125 1194.65625 C 1125.722656 1197.703125 1121.542969 1200.644531 1117.292969 1203.488281 C 1113.042969 1206.328125 1108.722656 1209.0625 1104.339844 1211.6875 C 1099.953125 1214.316406 1095.507812 1216.835938 1090.996094 1219.246094 C 1086.488281 1221.65625 1081.921875 1223.953125 1077.300781 1226.140625 C 1072.679688 1228.328125 1068.007812 1230.398438 1063.285156 1232.355469 C 1058.5625 1234.3125 1053.792969 1236.148438 1048.980469 1237.871094 C 1044.164062 1239.59375 1039.3125 1241.199219 1034.421875 1242.683594 C 1029.527344 1244.167969 1024.601562 1245.53125 1019.644531 1246.769531 C 1014.683594 1248.015625 1009.695312 1249.132812 1004.683594 1250.132812 C 999.667969 1251.128906 994.632812 1252.003906 989.574219 1252.753906 C 984.519531 1253.503906 979.445312 1254.128906 974.359375 1254.628906 C 969.269531 1255.128906 964.171875 1255.507812 959.066406 1255.757812 C 953.960938 1256.007812 948.851562 1256.132812 943.738281 1256.132812 L 556.222656 1256.132812 C 551.109375 1256.132812 546 1256.007812 540.894531 1255.757812 C 535.789062 1255.507812 530.691406 1255.128906 525.601562 1254.628906 C 520.515625 1254.128906 515.441406 1253.503906 510.386719 1252.753906 C 505.328125 1252.003906 500.292969 1251.128906 495.277344 1250.132812 C 490.265625 1249.132812 485.277344 1248.015625 480.316406 1246.769531 C 475.359375 1245.527344 470.433594 1244.167969 465.539062 1242.683594 C 460.648438 1241.199219 455.796875 1239.59375 450.980469 1237.871094 C 446.167969 1236.148438 441.398438 1234.3125 436.675781 1232.355469 C 431.953125 1230.398438 427.28125 1228.328125 422.660156 1226.140625 C 418.035156 1223.953125 413.472656 1221.65625 408.960938 1219.246094 C 404.453125 1216.835938 400.007812 1214.316406 395.621094 1211.6875 C 391.238281 1209.0625 386.917969 1206.328125 382.667969 1203.488281 C 378.417969 1200.644531 374.238281 1197.703125 370.132812 1194.65625 C 366.027344 1191.613281 361.996094 1188.46875 358.042969 1185.222656 C 354.09375 1181.980469 350.222656 1178.644531 346.433594 1175.210938 C 342.644531 1171.777344 338.945312 1168.25 335.328125 1164.636719 C 331.714844 1161.023438 328.191406 1157.320312 324.757812 1153.53125 C 321.324219 1149.742188 317.984375 1145.875 314.742188 1141.921875 C 311.5 1137.96875 308.355469 1133.941406 305.308594 1129.835938 C 302.261719 1125.726562 299.320312 1121.550781 296.480469 1117.296875 C 293.640625 1113.046875 290.90625 1108.730469 288.277344 1104.34375 C 285.648438 1099.960938 283.128906 1095.511719 280.71875 1091.003906 C 278.308594 1086.496094 276.011719 1081.929688 273.824219 1077.308594 C 271.640625 1072.6875 269.570312 1068.015625 267.613281 1063.289062 C 265.65625 1058.566406 263.816406 1053.796875 262.09375 1048.984375 C 260.371094 1044.171875 258.769531 1039.320312 257.285156 1034.425781 C 255.800781 1029.535156 254.4375 1024.609375 253.195312 1019.648438 C 251.953125 1014.6875 250.832031 1009.703125 249.835938 1004.6875 C 248.839844 999.675781 247.964844 994.636719 247.214844 989.582031 C 246.464844 984.523438 245.839844 979.453125 245.335938 974.363281 C 244.835938 969.277344 244.460938 964.179688 244.210938 959.074219 C 243.957031 953.964844 243.832031 948.855469 243.832031 943.746094 L 243.832031 556.226562 C 243.832031 551.117188 243.957031 546.007812 244.210938 540.898438 C 244.460938 535.792969 244.835938 530.695312 245.335938 525.609375 C 245.839844 520.519531 246.464844 515.449219 247.214844 510.390625 C 247.964844 505.332031 248.839844 500.296875 249.835938 495.285156 C 250.832031 490.269531 251.953125 485.28125 253.195312 480.324219 C 254.4375 475.363281 255.800781 470.4375 257.285156 465.546875 C 258.769531 460.652344 260.371094 455.800781 262.09375 450.988281 C 263.816406 446.171875 265.65625 441.40625 267.613281 436.683594 C 269.570312 431.957031 271.640625 427.285156 273.824219 422.664062 C 276.011719 418.042969 278.308594 413.476562 280.71875 408.96875 C 283.128906 404.460938 285.648438 400.011719 288.277344 395.628906 C 290.90625 391.242188 293.640625 386.925781 296.480469 382.675781 C 299.320312 378.421875 302.261719 374.246094 305.308594 370.136719 C 308.355469 366.03125 311.5 362.003906 314.742188 358.050781 C 317.984375 354.097656 321.324219 350.226562 324.757812 346.441406 C 328.191406 342.652344 331.714844 338.949219 335.328125 335.335938 C 338.945312 331.71875 342.644531 328.195312 346.433594 324.761719 C 350.222656 321.328125 354.09375 317.992188 358.042969 314.746094 C 361.996094 311.503906 366.027344 308.359375 370.132812 305.316406 C 374.238281 302.269531 378.417969 299.328125 382.667969 296.484375 C 386.917969 293.644531 391.238281 290.910156 395.621094 288.28125 C 400.007812 285.65625 404.453125 283.136719 408.960938 280.726562 C 413.472656 278.316406 418.035156 276.015625 422.660156 273.832031 C 427.28125 271.644531 431.953125 269.574219 436.675781 267.617188 C 441.398438 265.660156 446.167969 263.820312 450.980469 262.101562 C 455.796875 260.378906 460.648438 258.773438 465.539062 257.289062 C 470.433594 255.804688 475.359375 254.441406 480.316406 253.199219 C 485.277344 251.957031 490.265625 250.839844 495.277344 249.839844 C 500.292969 248.84375 505.328125 247.96875 510.386719 247.21875 C 515.441406 246.46875 520.515625 245.84375 525.601562 245.34375 C 530.691406 244.84375 535.789062 244.464844 540.894531 244.214844 C 546 243.964844 551.109375 243.839844 556.222656 243.839844 Z M 556.222656 243.839844 " fill-opacity="1" fill-rule="evenodd"/></g><path fill="#fefefe" d="M 733.410156 790.085938 L 707.921875 753.59375 L 505.046875 463.417969 L 592.402344 463.417969 L 756.109375 697.625 L 781.609375 734.074219 L 994.417969 1038.5 L 907.089844 1038.5 L 733.417969 790.089844 Z M 811.300781 699.535156 L 1051.257812 420.613281 L 994.363281 420.613281 L 786.023438 662.796875 L 619.628906 420.613281 L 427.699219 420.613281 L 679.328125 786.835938 L 427.699219 1079.335938 L 484.566406 1079.335938 L 704.566406 823.585938 L 880.324219 1079.335938 L 1072.253906 1079.335938 L 811.261719 699.542969 L 811.300781 699.542969 Z M 811.300781 699.535156 " fill-opacity="1" fill-rule="nonzero"/></svg>